<svg width="29" height="30" viewBox="0 0 29 30" fill="none" xmlns="http://www.w3.org/2000/svg">
<path fill-rule="evenodd" clip-rule="evenodd" d="M14.5607 5.65137C10.3705 5.65137 6.97363 9.44737 6.97363 13.7127C6.97363 17.9445 9.39517 22.5444 13.1733 24.3104C14.054 24.722 15.0674 24.722 15.9482 24.3104C19.7263 22.5444 22.1478 17.9445 22.1478 13.7127C22.1478 9.44737 18.751 5.65137 14.5607 5.65137ZM14.5607 15.1352C15.6083 15.1352 16.4575 14.286 16.4575 13.2385C16.4575 12.1909 15.6083 11.3417 14.5607 11.3417C13.5132 11.3417 12.664 12.1909 12.664 13.2385C12.664 14.286 13.5132 15.1352 14.5607 15.1352Z" fill="#909596"/>
</svg>
